%TF.GenerationSoftware,KiCad,Pcbnew,(5.1.10)-1*%
%TF.CreationDate,2021-06-21T21:07:17+02:00*%
%TF.ProjectId,Funk_v2,46756e6b-5f76-4322-9e6b-696361645f70,rev?*%
%TF.SameCoordinates,Original*%
%TF.FileFunction,Legend,Bot*%
%TF.FilePolarity,Positive*%
%FSLAX46Y46*%
G04 Gerber Fmt 4.6, Leading zero omitted, Abs format (unit mm)*
G04 Created by KiCad (PCBNEW (5.1.10)-1) date 2021-06-21 21:07:17*
%MOMM*%
%LPD*%
G01*
G04 APERTURE LIST*
%ADD10C,0.150000*%
G04 APERTURE END LIST*
D10*
%TO.C,J1*%
X236372000Y-55382000D02*
X227432000Y-55382000D01*
X227432000Y-55382000D02*
X227432000Y-88382000D01*
X227432000Y-88382000D02*
X236372000Y-88382000D01*
X236372000Y-88382000D02*
X236372000Y-55382000D01*
X236372000Y-69657000D02*
X235072000Y-69657000D01*
X235072000Y-69657000D02*
X235072000Y-56582000D01*
X235072000Y-56582000D02*
X228732000Y-56582000D01*
X228732000Y-56582000D02*
X228732000Y-87182000D01*
X228732000Y-87182000D02*
X235072000Y-87182000D01*
X235072000Y-87182000D02*
X235072000Y-74107000D01*
X235072000Y-74107000D02*
X236372000Y-74107000D01*
X227432000Y-71632000D02*
X227232000Y-71632000D01*
X227232000Y-71632000D02*
X227232000Y-72132000D01*
X227232000Y-72132000D02*
X227432000Y-72132000D01*
X227332000Y-71632000D02*
X227332000Y-72132000D01*
X227432000Y-85462000D02*
X227232000Y-85462000D01*
X227232000Y-85462000D02*
X227232000Y-85962000D01*
X227232000Y-85962000D02*
X227432000Y-85962000D01*
X227332000Y-85462000D02*
X227332000Y-85962000D01*
X227432000Y-57802000D02*
X227232000Y-57802000D01*
X227232000Y-57802000D02*
X227232000Y-58302000D01*
X227232000Y-58302000D02*
X227432000Y-58302000D01*
X227332000Y-57802000D02*
X227332000Y-58302000D01*
X233772000Y-58252000D02*
X232572000Y-58252000D01*
X232572000Y-58252000D02*
X233172000Y-58852000D01*
X233172000Y-58852000D02*
X233772000Y-58252000D01*
X225624380Y-57118666D02*
X226338666Y-57118666D01*
X226481523Y-57071047D01*
X226576761Y-56975809D01*
X226624380Y-56832952D01*
X226624380Y-56737714D01*
X226624380Y-58118666D02*
X226624380Y-57547238D01*
X226624380Y-57832952D02*
X225624380Y-57832952D01*
X225767238Y-57737714D01*
X225862476Y-57642476D01*
X225910095Y-57547238D01*
%TD*%
M02*
