M48
; DRILL file {KiCad (5.1.10)-1} date 06/21/21 21:09:05
; FORMAT={-:-/ absolute / inch / decimal}
; #@! TF.CreationDate,2021-06-21T21:09:05+02:00
; #@! TF.GenerationSoftware,Kicad,Pcbnew,(5.1.10)-1
; #@! TF.FileFunction,Plated,1,2,PTH
FMAT,2
INCH
T1C0.0118
T2C0.0157
T3C0.0197
T4C0.0236
T5C0.0276
T6C0.0300
T7C0.0315
T8C0.0354
T9C0.0394
T10C0.1102
T11C0.1260
%
G90
G05
T1
X3.6Y-2.28
X3.75Y-2.22
X4.2Y-2.64
X4.23Y-3.63
X5.2Y-2.68
X5.22Y-3.22
X5.26Y-3.24
X5.38Y-3.6
X5.4Y-3.5716
X5.45Y-3.0
X5.45Y-3.08
X5.5Y-3.56
X5.5182Y-2.93
X5.54Y-3.07
X5.57Y-3.5406
X5.8Y-2.26
X6.75Y-3.23
X7.57Y-3.57
X7.6Y-3.59
X7.65Y-3.1894
X7.72Y-3.71
X7.98Y-2.92
X8.41Y-3.22
X8.48Y-3.31
X8.5Y-2.47
X8.52Y-1.71
X8.58Y-3.22
X8.7Y-1.08
X8.92Y-1.76
X9.0Y-2.43
X9.2Y-3.34
X9.31Y-2.98
X9.33Y-2.88
X9.35Y-3.08
T2
X2.45Y-2.8791
X2.54Y-2.8506
X2.56Y-2.4791
X2.62Y-1.5506
X2.62Y-2.822
X2.63Y-1.3513
X2.7Y-1.7209
X2.71Y-1.3799
X2.81Y-2.44
X2.82Y-1.4406
X3.18Y-2.8506
X3.2123Y-1.6923
X3.3023Y-2.9923
X3.35Y-1.522
X3.35Y-1.64
X3.35Y-1.78
X3.3791Y-2.4791
X3.54Y-1.5791
X3.6Y-1.3228
X3.81Y-1.59
X3.8423Y-1.4406
X3.8798Y-1.3298
X3.89Y-1.75
X3.9Y-1.1614
X3.9302Y-1.3602
X4.02Y-2.45
X4.05Y-1.61
X4.85Y-1.16
X5.4Y-1.61
X5.51Y-1.93
X5.5322Y-2.9822
X5.56Y-1.23
X5.56Y-3.01
X5.62Y-1.19
X5.66Y-1.16
X5.74Y-2.8791
X5.8Y-1.16
X5.8Y-1.56
X5.84Y-2.8506
X5.88Y-2.62
X6.0443Y-1.3643
X6.07Y-2.822
X6.1Y-1.93
X6.14Y-2.4791
X6.1423Y-1.3577
X6.16Y-3.05
X6.2Y-1.49
X6.23Y-3.15
X6.24Y-1.85
X6.2423Y-2.6209
X6.29Y-1.65
X6.29Y-1.76
X6.7Y-2.6494
X6.77Y-2.4791
X6.8088Y-2.9812
X6.84Y-1.31
X6.96Y-1.14
X6.9862Y-1.5196
X7.02Y-1.57
X7.07Y-1.17
X7.2Y-1.13
X7.2Y-1.1791
X8.0593Y-2.7007
X9.01Y-3.18
T3
X1.8055Y-3.7
X1.8332Y-3.6332
X1.8332Y-3.7668
X1.8387Y-0.8332
X1.8664Y-0.7664
X1.8664Y-0.9
X1.9Y-3.6055
X1.9Y-3.7945
X1.9332Y-0.7387
X1.9332Y-0.9277
X1.9668Y-3.6332
X1.9668Y-3.7668
X1.9945Y-3.7
X2.0Y-0.7664
X2.0Y-0.9
X2.0277Y-0.8332
X4.7055Y-3.1
X4.7332Y-3.0332
X4.7332Y-3.1668
X4.8Y-3.0055
X4.8Y-3.1945
X4.8668Y-3.0332
X4.8668Y-3.1668
X4.8945Y-3.1
X6.3055Y-0.8
X6.3055Y-2.3
X6.3055Y-3.7
X6.3332Y-0.7332
X6.3332Y-0.8668
X6.3332Y-2.2332
X6.3332Y-2.3668
X6.3332Y-3.6332
X6.3332Y-3.7668
X6.4Y-0.7055
X6.4Y-0.8945
X6.4Y-2.2055
X6.4Y-2.3945
X6.4Y-3.6055
X6.4Y-3.7945
X6.4668Y-0.7332
X6.4668Y-0.8668
X6.4668Y-2.2332
X6.4668Y-2.3668
X6.4668Y-3.6332
X6.4668Y-3.7668
X6.4945Y-0.8
X6.4945Y-2.3
X6.4945Y-3.7
X7.7445Y-2.3
X7.7722Y-2.2332
X7.7722Y-2.3668
X7.8055Y-0.8
X7.8332Y-0.7332
X7.8332Y-0.8668
X7.839Y-2.2055
X7.839Y-2.3945
X7.9Y-0.7055
X7.9Y-0.8945
X7.9058Y-2.2332
X7.9058Y-2.3668
X7.9335Y-2.3
X7.9668Y-0.7332
X7.9668Y-0.8668
X7.9945Y-0.8
X9.1Y-0.8
X9.1Y-3.7
X9.1277Y-0.7332
X9.1277Y-0.8668
X9.1277Y-3.6332
X9.1277Y-3.7668
X9.1945Y-0.7055
X9.1945Y-0.8945
X9.1945Y-3.6055
X9.1945Y-3.7945
X9.2613Y-0.7332
X9.2613Y-0.8668
X9.2613Y-3.6332
X9.2613Y-3.7668
X9.289Y-0.8
X9.289Y-3.7
T4
X5.6Y-3.28
X6.0Y-3.3752
X6.76Y-3.32
X8.54Y-3.29
X8.55Y-2.17
T5
X8.29Y-3.55
X8.29Y-3.75
T6
X4.75Y-1.35
X4.75Y-1.55
X4.75Y-2.65
X4.75Y-2.85
X4.85Y-1.35
X4.85Y-1.55
X4.85Y-2.65
X4.85Y-2.85
X4.95Y-1.35
X4.95Y-1.55
X4.95Y-2.65
X4.95Y-2.85
T7
X3.1Y-1.85
X3.1Y-2.15
X3.1Y-3.15
X3.1Y-3.45
X3.2Y-1.85
X3.2Y-2.15
X3.2Y-3.15
X3.2Y-3.45
X3.3Y-1.85
X3.3Y-2.15
X3.3Y-3.15
X3.3Y-3.45
X3.4Y-1.85
X3.4Y-2.15
X3.4Y-3.15
X3.4Y-3.45
X3.5Y-1.85
X3.5Y-2.15
X3.5Y-3.15
X3.5Y-3.45
X3.6Y-1.85
X3.6Y-2.15
X3.6Y-3.15
X3.6Y-3.45
X3.7Y-1.85
X3.7Y-2.15
X3.7Y-3.15
X3.7Y-3.45
X3.8Y-1.85
X3.8Y-2.15
X3.8Y-3.15
X3.8Y-3.45
X3.9Y-3.3516
X3.9Y-3.45
X3.91Y-2.0516
X3.91Y-2.15
X4.6Y-1.35
X4.6Y-1.65
X4.6Y-2.6
X4.6Y-2.9
X5.3Y-1.85
X5.3Y-2.15
X5.3Y-3.15
X5.3Y-3.45
X5.4Y-1.85
X5.4Y-2.15
X5.4Y-3.15
X5.4Y-3.45
X5.5Y-1.85
X5.5Y-2.15
X5.5Y-3.15
X5.5Y-3.45
X5.6Y-1.85
X5.6Y-2.15
X5.6Y-3.15
X5.6Y-3.45
X5.7Y-1.85
X5.7Y-2.15
X5.7Y-3.15
X5.7Y-3.45
X5.8Y-1.85
X5.8Y-2.15
X5.8Y-3.15
X5.8Y-3.45
X5.9Y-1.85
X5.9Y-2.15
X5.9Y-3.15
X5.9Y-3.45
X6.0Y-1.85
X6.0Y-2.15
X6.0Y-3.15
X6.0Y-3.45
X6.1Y-2.0516
X6.1Y-2.15
X6.1Y-3.45
X6.1984Y-3.45
X6.7Y-3.15
X6.7Y-3.45
X6.8Y-3.15
X6.8Y-3.45
X6.9Y-3.15
X6.9Y-3.45
X7.0Y-3.15
X7.0Y-3.45
X7.1Y-3.15
X7.1Y-3.45
X7.2Y-3.15
X7.2Y-3.45
X7.3Y-3.15
X7.3Y-3.45
X7.4Y-3.15
X7.4Y-3.45
X7.5Y-3.15
X7.5Y-3.45
X7.825Y-3.075
X7.825Y-3.175
X7.825Y-3.275
X7.825Y-3.375
X7.825Y-3.475
X7.825Y-3.575
X7.825Y-3.675
X7.825Y-3.775
X8.0216Y-2.97
X8.05Y-1.8
X8.12Y-2.97
X8.125Y-3.075
X8.125Y-3.175
X8.125Y-3.275
X8.125Y-3.375
X8.125Y-3.475
X8.125Y-3.575
X8.125Y-3.675
X8.125Y-3.775
X8.35Y-1.8
X8.35Y-3.2
X8.65Y-3.2
T8
X8.45Y-1.7
X8.45Y-1.8
X8.45Y-3.0
X8.45Y-3.1
X8.65Y-1.7
X8.65Y-3.0
T9
X2.3Y-1.25
X2.3Y-1.65
X2.3Y-2.55
X2.3Y-2.95
X2.4Y-1.25
X2.4Y-1.65
X2.4Y-2.55
X2.4Y-2.95
X2.5Y-1.25
X2.5Y-1.65
X2.5Y-2.55
X2.5Y-2.95
X2.6Y-1.25
X2.6Y-1.65
X2.6Y-2.55
X2.6Y-2.95
X2.7Y-1.25
X2.7Y-1.65
X2.7Y-2.55
X2.7Y-2.95
X2.8Y-1.25
X2.8Y-1.65
X2.8Y-2.55
X2.8Y-2.95
X3.5Y-1.25
X3.5Y-1.65
X3.5Y-2.55
X3.5Y-2.95
X3.6Y-1.25
X3.6Y-1.65
X3.6Y-2.55
X3.6Y-2.95
X3.7Y-1.25
X3.7Y-1.65
X3.7Y-2.55
X3.7Y-2.95
X3.8Y-1.25
X3.8Y-1.65
X3.8Y-2.55
X3.8Y-2.95
X3.9Y-1.25
X3.9Y-1.65
X3.9Y-2.55
X3.9Y-2.95
X4.0Y-1.25
X4.0Y-1.65
X4.0Y-2.55
X4.0Y-2.95
X5.7Y-1.25
X5.7Y-1.65
X5.7Y-2.55
X5.7Y-2.95
X5.8Y-1.25
X5.8Y-1.65
X5.8Y-2.55
X5.8Y-2.95
X5.9Y-1.25
X5.9Y-1.65
X5.9Y-2.55
X5.9Y-2.95
X6.0Y-1.25
X6.0Y-1.65
X6.0Y-2.55
X6.0Y-2.95
X6.1Y-1.25
X6.1Y-1.65
X6.1Y-2.55
X6.1Y-2.95
X6.2Y-1.25
X6.2Y-1.65
X6.2Y-2.55
X6.2Y-2.95
X6.9Y-1.25
X6.9Y-1.65
X6.9Y-2.55
X6.9Y-2.95
X7.0Y-1.25
X7.0Y-1.65
X7.0Y-2.55
X7.0Y-2.95
X7.1Y-1.25
X7.1Y-1.65
X7.1Y-2.55
X7.1Y-2.95
X7.2Y-1.25
X7.2Y-1.65
X7.2Y-2.55
X7.2Y-2.95
X7.3Y-1.25
X7.3Y-1.65
X7.3Y-2.55
X7.3Y-2.95
X7.4Y-1.25
X7.4Y-1.65
X7.4Y-2.55
X7.4Y-2.95
X8.4516Y-1.1244
X8.4516Y-2.4244
X8.55Y-1.1244
X8.55Y-1.8
X8.55Y-2.4244
X8.55Y-3.1
X8.6484Y-1.1244
X8.6484Y-1.8
X8.6484Y-2.4244
X8.6484Y-3.1
X9.08Y-2.38
X9.08Y-2.48
X9.08Y-2.58
X9.08Y-2.68
X9.08Y-2.78
X9.08Y-2.88
X9.08Y-2.98
X9.08Y-3.08
X9.08Y-3.18
X9.08Y-3.28
X9.18Y-2.38
X9.18Y-2.48
X9.18Y-2.58
X9.18Y-2.68
X9.18Y-2.78
X9.18Y-2.88
X9.18Y-2.98
X9.18Y-3.08
X9.18Y-3.18
X9.18Y-3.28
T10
X8.35Y-1.45
X8.35Y-2.75
X8.75Y-1.45
X8.75Y-2.75
T11
X1.9Y-3.7
X1.9332Y-0.8332
X4.8Y-3.1
X6.4Y-0.8
X6.4Y-2.3
X6.4Y-3.7
X7.839Y-2.3
X7.9Y-0.8
X9.1945Y-0.8
X9.1945Y-3.7
T0
M30
